# xmcd
#
# Track frame offsets: 
#        150
#        9437
#        20547
#        32132
#        43285
#        53705
#        64907
#        75297
#        87205
#        98915
#        110130
#        120535
#        132375
#        143447
#        154142
#        164070
#
# Disc length: 2339 seconds
#
# Revision: 2
# Processed by: cddbd v1.5.2PL0 Copyright (c) Steve Scherf et al.
# Submitted via: ExactAudioCopyFreeDBPlugin 1.0
#
DISCID=d2092110
DTITLE=Patsy Cline - SPOTLIGHT ON
DYEAR=1993
DGENRE=Country
TTITLE0=WALKING AFTER MIDNIGHT
TTITLE1=I CRIED ALL THE WAY TO THE ALTAR
TTITLE2=IN CARE OFTHE BLUES
TTITLE3=I CANT FORGET YOU
TTITLE4=I LOVE YOU HONEY
TTITLE5=JUST OUT OF REACH
TTITLE6=WALKING DREAM
TTITLE7=TODAY TOMMORROW AND FOREVER
TTITLE8=LET THE TEARDROPS FALL
TTITLE9=HUNGRY FOR LOVE
TTITLE10=TOO MANY SECRETS
TTITLE11=NEVER NO MORE
TTITLE12=STOP THE WORLD
TTITLE13=I DONT WANNA
TTITLE14=TURN THE CARDS SLOVLY
TTITLE15=IVE LOVED AND LOST AGAIN
EXTD=
EXTT0=
EXTT1=
EXTT2=
EXTT3=
EXTT4=
EXTT5=
EXTT6=
EXTT7=
EXTT8=
EXTT9=
EXTT10=
EXTT11=
EXTT12=
EXTT13=
EXTT14=
EXTT15=
PLAYORDER=
